# xmcd
#
# Track frame offsets:
#	225
#	12477
#	24748
#	37946
#	58108
#	73607
#	94097
#	109443
#	126437
#	144222
#	161637
#	178446
#	197620
#	210953
#	223552
#	236860
#	248811
#	267821
#
# Disc length: 3768 seconds
#
# Revision: 3
# Processed by: cddbd v1.5.1PL0 Copyright (c) Steve Scherf et al.
# Submitted via: audiograbber 1.83.01
#
DISCID=0d0eb512
DTITLE=Dionne Warwick - Most famous hits (Disc1)
DYEAR=1990
DGENRE=Blues
TTITLE0=Walk on by
TTITLE1=I´ll never fall in love again
TTITLE2=I say a little prayer for you
TTITLE3=Who can I turn to
TTITLE4=Her is where there is love
TTITLE5=Don´t burn that bridge
TTITLE6=Only love can break a heart
TTITLE7=Let it be me
TTITLE8=Unchained melody
TTITLE9=Don´t let my teardrops bother you
TTITLE10=I think you need love
TTITLE11=I´m just being myself
TTITLE12=Raindrops keep fallin´ on my head
TTITLE13=Trains and boats and planes
TTITLE14=Do you know the way to San Jose?
TTITLE15=Reach out for me
TTITLE16=This girl´s in love with you
TTITLE17=The windows of the world
EXTD=ID3G:   0 YEAR: 1990
EXTT0=
EXTT1=
EXTT2=
EXTT3=
EXTT4=
EXTT5=
EXTT6=
EXTT7=
EXTT8=
EXTT9=
EXTT10=
EXTT11=
EXTT12=
EXTT13=
EXTT14=
EXTT15=
EXTT16=
EXTT17=
PLAYORDER=
